<svg viewBox="0 0 64 64" xmlns="http://www.w3.org/2000/svg"><path d="m61.929 45.628-3.856-9.637a1 1 0 0 0 .784-.476l3-5a1 1 0 0 0-.361-1.383l-3.5-2V19a4.989 4.989 0 0 0-3.419-4.719 7 7 0 1 0-9.162 0A4.989 4.989 0 0 0 42 19v3.947l-5.789 7.439a1 1 0 0 0 .082 1.321l.561.561-7.326 7.325-6.363-6.364a3.073 3.073 0 0 0-4.243 0L3.365 48.786 1.6 50.553a2.5 2.5 0 1 0 3.535 3.536l1.061-1.061 4.242 4.243-1.063 1.061a2.5 2.5 0 0 0 3.536 3.535l1.768-1.767 15.557-15.557a3 3 0 0 0 .576-3.405l7.456-7.456 2.025 2.025A1 1 0 0 0 41 36h.063a1 1 0 0 0 .728-.385l.73-.942a12.818 12.818 0 0 0 1.872 3.859L42.067 48.6l-5.9 8.848a1 1 0 0 0 .207 1.336l5 4A1.006 1.006 0 0 0 42 63a1 1 0 0 0 .809-.412l8-11a1.015 1.015 0 0 0 .149-.3l1.368-4.548L54 48.414V61a1 1 0 0 0 1 1h6a1 1 0 0 0 1-1V46a1.012 1.012 0 0 0-.071-.372Zm-58.21 7.047a.5.5 0 0 1-.707-.708l1.06-1.06.708.707Zm7.071 7.778a.5.5 0 0 1 0-.707l1.06-1.061.708.707-1.058 1.061a.5.5 0 0 1-.71 0Zm18.031-17.324L13.972 57.978l-8.486-8.485 14.85-14.849a1.023 1.023 0 0 1 1.414 0l7.071 7.07a1 1 0 0 1 0 1.415ZM45 9a5 5 0 1 1 5 5 5.006 5.006 0 0 1-5-5Zm-4.095 24.491-2.573-2.574L42 26.2v4.83c0 .331.024.659.048.986Zm8.186 17.058-7.284 10.016-3.466-2.773 5.491-8.237a1 1 0 0 0 .142-.33l2.034-8.8 4.712 4.712ZM60 60h-4V48a1 1 0 0 0-.293-.707l-8.49-8.49A10.922 10.922 0 0 1 44 31.03V19a3 3 0 0 1 3-3h6a3 3 0 0 1 3 3v6.991l-1.172-.67-1.879-5.637-1.9.632 2 6a1 1 0 0 0 .453.552l6.113 3.493-2 3.33-6.851-3.425-3.854-8.672-1.828.812 4 9a1 1 0 0 0 .467.489L56 35.118V36a1.012 1.012 0 0 0 .071.372L60 46.192Z" fill="#ffffff" class="fill-000000"></path><path d="m14.292 48.293 5-5 1.415 1.415-5 5zM4.072 14.268l-1.733 1 2 3.464 1.733-1-.5-.866 1.807-1.043A6.006 6.006 0 0 0 11 17.91V20h-1v2h4v-2h-1v-2.09a6.006 6.006 0 0 0 3.621-2.087l1.807 1.043-.5.866 1.733 1 2-3.464-1.733-1-.5.866-1.81-1.046a5.9 5.9 0 0 0 0-4.176l1.81-1.046.5.866 1.733-1-2-3.464-1.733 1 .5.866-1.807 1.043A6.006 6.006 0 0 0 13 6.09V4h1V2h-4v2h1v2.09a6.006 6.006 0 0 0-3.621 2.087L5.572 7.134l.5-.866-1.733-1-2 3.464 1.733 1 .5-.866 1.81 1.046a5.9 5.9 0 0 0 0 4.176l-1.81 1.046ZM12 8a4 4 0 1 1-4 4 4 4 0 0 1 4-4ZM35.293 15.293l1.414 1.414 4-4a1 1 0 0 0 0-1.414l-4-4-1.414 1.414L37.586 11H30v2h7.586ZM26 11h2v2h-2zM22 11h2v2h-2zM21.293 41.293l2-2 1.414 1.414-2 2z" fill="#ffffff" class="fill-000000"></path></svg>